<?xml version="1.0" encoding="utf-8"?>
<!-- Generator: Adobe Illustrator 22.0.1, SVG Export Plug-In . SVG Version: 6.00 Build 0)  -->
<svg version="1.1" id="Calque_1" xmlns="http://www.w3.org/2000/svg" xmlns:xlink="http://www.w3.org/1999/xlink" x="0px" y="0px"
	 viewBox="0 0 400 400" style="enable-background:new 0 0 400 400;" xml:space="preserve">
<style type="text/css">
	.st0{fill:#FFC000;}
	.st1{fill:#FFFFFF;}
	.st2{fill:none;}
</style>
<g>
	<g>
		<ellipse class="st0" cx="116.7" cy="339.5" rx="43.7" ry="19"/>
		<path d="M116.7,326.8c23.2,0,37.3,8.2,37.3,12.7s-14.2,12.7-37.3,12.7s-37.3-8.2-37.3-12.7S93.6,326.8,116.7,326.8 M116.7,320.4
			c-24.1,0-43.7,8.5-43.7,19s19.6,19,43.7,19s43.7-8.5,43.7-19S140.9,320.4,116.7,320.4L116.7,320.4z"/>
	</g>
	<g>
		<ellipse class="st0" cx="116.7" cy="320.4" rx="61.9" ry="27"/>
		<path d="M116.7,299.8c34.4,0,55.6,12,55.6,20.6s-21.1,20.6-55.6,20.6s-55.6-12-55.6-20.6S82.3,299.8,116.7,299.8 M116.7,293.5
			c-34.2,0-61.9,12.1-61.9,27c0,14.9,27.7,27,61.9,27s61.9-12.1,61.9-27C178.6,305.5,150.9,293.5,116.7,293.5L116.7,293.5z"/>
	</g>
	<g>
		<ellipse class="st0" cx="116.7" cy="288.7" rx="80.1" ry="34.9"/>
		<path d="M116.7,260.2c20.5,0,39.8,3.4,54.1,9.7c12.3,5.4,19.7,12.4,19.7,18.9c0,6.4-7.3,13.5-19.7,18.9
			c-14.3,6.3-33.6,9.7-54.1,9.7s-39.8-3.4-54.1-9.7C50.3,302.2,43,295.2,43,288.7c0-6.4,7.3-13.5,19.7-18.9
			C77,263.6,96.2,260.2,116.7,260.2 M116.7,253.8c-44.2,0-80.1,15.6-80.1,34.9c0,19.3,35.9,34.9,80.1,34.9s80.1-15.6,80.1-34.9
			C196.8,269.4,161,253.8,116.7,253.8L116.7,253.8z"/>
	</g>
	<g>
		<ellipse class="st0" cx="116.7" cy="257" rx="87.4" ry="38.1"/>
		<path d="M116.7,225.3c47.8,0,81,16.7,81,31.7c0,15-33.3,31.7-81,31.7s-81-16.7-81-31.7C35.7,242,69,225.3,116.7,225.3
			 M116.7,218.9c-48.3,0-87.4,17-87.4,38.1S68.5,295,116.7,295s87.4-17,87.4-38.1S165,218.9,116.7,218.9L116.7,218.9z"/>
	</g>
	<g>
		<ellipse class="st0" cx="116.7" cy="225.3" rx="80.1" ry="34.9"/>
		<path d="M116.7,196.7c20.5,0,39.8,3.4,54.1,9.7c12.3,5.4,19.7,12.4,19.7,18.9c0,6.4-7.3,13.5-19.7,18.9
			c-14.3,6.3-33.6,9.7-54.1,9.7s-39.8-3.4-54.1-9.7C50.3,238.8,43,231.7,43,225.3c0-6.4,7.3-13.5,19.7-18.9
			C77,200.1,96.2,196.7,116.7,196.7 M116.7,190.4c-44.2,0-80.1,15.6-80.1,34.9c0,19.3,35.9,34.9,80.1,34.9s80.1-15.6,80.1-34.9
			C196.8,206,161,190.4,116.7,190.4L116.7,190.4z"/>
	</g>
	<g>
		<ellipse class="st0" cx="116.7" cy="198.3" rx="61.9" ry="27"/>
		<path d="M116.7,177.7c34.4,0,55.6,12,55.6,20.6s-21.1,20.6-55.6,20.6s-55.6-12-55.6-20.6S82.3,177.7,116.7,177.7 M116.7,171.3
			c-34.2,0-61.9,12.1-61.9,27s27.7,27,61.9,27s61.9-12.1,61.9-27S150.9,171.3,116.7,171.3L116.7,171.3z"/>
	</g>
	<g>
		<ellipse class="st0" cx="116.7" cy="174.5" rx="36.4" ry="15.9"/>
		<path d="M116.7,165c8.7,0,17.2,1.5,23.2,4.1c5.2,2.3,6.9,4.6,6.9,5.4s-1.7,3.1-6.9,5.4c-6,2.6-14.5,4.1-23.2,4.1
			s-17.2-1.5-23.2-4.1c-5.2-2.3-6.9-4.6-6.9-5.4s1.7-3.1,6.9-5.4C99.5,166.5,108,165,116.7,165 M116.7,158.6
			c-20.1,0-36.4,7.1-36.4,15.9c0,8.8,16.3,15.9,36.4,15.9s36.4-7.1,36.4-15.9C153.1,165.7,136.8,158.6,116.7,158.6L116.7,158.6z"/>
	</g>
	<polygon points="281,138 278.2,149.5 287.7,143.1 	"/>
	<g>
		
			<ellipse transform="matrix(3.533321e-02 -0.9994 0.9994 3.533321e-02 285.8443 362.6236)" cx="330.8" cy="33.2" rx="10.2" ry="2.3"/>
	</g>
	<g>
		<ellipse transform="matrix(0.8832 -0.4691 0.4691 0.8832 18.3132 173.5939)" cx="357.6" cy="50" rx="10.2" ry="2.3"/>
	</g>
	<g>
		<path class="st0" d="M325.6,74.8c2.8,1.8,5,4.2,6.6,7.2c0,0,0,0,0,0c4.6,8.5,4.1,21.2-1.4,33.6c-0.4,1-0.9,2-1.5,3
			c-3.5-6.9-8.8-13.4-15.8-18.6c-8.8-6.5-18.9-9.9-28.5-10.3c0.6-0.8,1.2-1.5,1.8-2.2c8.5-10,19.3-15.8,28.7-15.7
			c3.4,0,6.5,0.8,9.4,2.4l0.2,0.2C325.3,74.6,325.4,74.7,325.6,74.8z"/>
		<path d="M292.3,87c7.2-7.2,15.8-11.5,23.2-11.4c2.8,0,5.3,0.7,7.6,1.9l0.2,0.1l0.1,0.1l0.1,0.1c0.1,0,0.1,0.1,0.2,0.1
			c2.2,1.4,4,3.4,5.4,5.9l0.2,0.4c3.5,6.8,3.3,16.7-0.3,26.7c-3.5-5.1-8-9.8-13.2-13.6C308.7,92,300.6,88.5,292.3,87L292.3,87z
			 M285.1,89.8c9.6,0.4,19.7,3.8,28.5,10.3c7,5.2,12.3,11.6,15.8,18.6c0.5-1,1-2,1.5-3c5.5-12.4,6-25.1,1.4-33.6c0,0,0,0,0,0
			c-1.6-3-3.8-5.5-6.6-7.2c-0.1-0.1-0.3-0.2-0.4-0.2l-0.2-0.2c-2.8-1.6-6-2.4-9.4-2.4c-9.4-0.1-20.2,5.7-28.7,15.7
			C286.2,88.3,285.6,89,285.1,89.8L285.1,89.8z"/>
	</g>
	<g>
		<circle class="st0" cx="334" cy="60.2" r="24.1"/>
		<path d="M316.7,49.3c6-9.6,18.6-12.5,28.2-6.5c9.6,6,12.5,18.6,6.5,28.2s-18.6,12.5-28.2,6.5C313.6,71.6,310.7,58.9,316.7,49.3
			 M313.6,47.4c-7,11.3-3.6,26.1,7.6,33.2c11.3,7,26.1,3.6,33.2-7.6c7-11.3,3.6-26.1-7.6-33.2S320.6,36.2,313.6,47.4L313.6,47.4z"/>
	</g>
	<g>
		
			<ellipse transform="matrix(0.1195 -0.9928 0.9928 0.1195 190.9598 353.0341)" class="st1" cx="294.5" cy="68.9" rx="19.9" ry="31.3"/>
		<path d="M268.5,61.5c4.2-6.7,15.7-10.3,28-8.8c14.9,1.8,26.6,10.7,25.5,19.4c-0.2,1.4-0.7,2.7-1.4,4c-4.2,6.7-15.7,10.3-28,8.8
			c-14.9-1.8-26.6-10.7-25.5-19.4C267.2,64.2,267.7,62.8,268.5,61.5L268.5,61.5z M265.4,59.6c-1.1,1.7-1.7,3.5-2,5.5
			C262.2,76,275,86.5,292.2,88.6c14.1,1.7,26.7-2.8,31.5-10.5c1.1-1.7,1.7-3.5,2-5.5c1.3-10.9-11.5-21.4-28.7-23.4
			C282.8,47.5,270.2,52,265.4,59.6L265.4,59.6z"/>
	</g>
	<g>
		
			<ellipse transform="matrix(0.8404 -0.5419 0.5419 0.8404 0.9052 202.021)" class="st1" cx="343.5" cy="99.5" rx="19.9" ry="31.3"/>
		<path d="M325.5,79.3L325.5,79.3c0.8-1.3,1.8-2.3,3-3c7.4-4.8,20.5,1.8,28.6,14.5c6.7,10.4,8.5,22.3,4.3,29c-0.8,1.3-1.8,2.3-3,3.1
			c-7.4,4.8-20.5-1.8-28.6-14.5C323.1,97.9,321.4,85.9,325.5,79.3L325.5,79.3z M322.5,77.4c-4.8,7.7-3.3,21,4.3,32.9
			c9.4,14.5,24.4,21.5,33.6,15.5c1.7-1.1,3-2.5,4.1-4.2c4.8-7.7,3.3-21-4.3-32.9c-9.4-14.5-24.4-21.5-33.6-15.5
			C324.9,74.3,323.5,75.7,322.5,77.4L322.5,77.4z"/>
	</g>
	<g>
		<path d="M292.1,129.1c5.4,4,9.8,8.8,13.2,13.9c-8,3.7-16.1,4-22.4,0.1c-6.9-4.3-10.2-13-9.7-23
			C279.7,121.8,286.2,124.7,292.1,129.1z"/>
	</g>
	<g>
		<path d="M302.8,114.6c-8.1-6-17.3-9.4-26.1-10.2c-2.1,5.4-3.3,10.7-3.6,15.7c6.5,1.6,13,4.6,19,9c5.4,4,9.8,8.8,13.2,13.9
			c4.7-2.2,9.3-5.4,13.5-9.7C315.2,126.3,309.9,119.8,302.8,114.6z M293.5,127.2c-5.5-4.1-11.5-7-17.9-8.9c0.4-3.7,1.2-7.5,2.6-11.3
			c8.2,1,16.1,4.3,23.1,9.5c6,4.4,10.9,10.1,14.4,16.3c-3,2.9-6.3,5.3-9.7,7.1C302.7,135.1,298.5,130.9,293.5,127.2z"/>
	</g>
	<g>
		<path d="M313.6,100.1c7,5.2,12.3,11.6,15.8,18.6c-0.8,1.5-1.6,3-2.5,4.4c-2.4,3.9-5.1,7.3-8.1,10.3c-3.5-7-8.9-13.5-15.9-18.7
			c-8.1-6-17.3-9.4-26.1-10.2c1.3-3.2,2.9-6.5,4.9-9.7c1.1-1.8,2.3-3.4,3.5-5C294.7,90.2,304.7,93.6,313.6,100.1z"/>
	</g>
	<circle cx="330.9" cy="24.2" r="3.6"/>
	<circle cx="366.3" cy="44.9" r="3.6"/>
	<path d="M322.7,79.5l-2.9,2.2c-0.1-0.2-13.2-16.8-28.4-13.3c-15.3,3.5-18.8,10.5-18.8,10.6l-3.3-1.5c0.2-0.4,4-8.6,21.3-12.6
		C308.1,60.8,322.1,78.7,322.7,79.5z"/>
	<g>
		<line class="st1" x1="277" y1="52.9" x2="291" y2="66.6"/>
		<rect x="282.2" y="50" transform="matrix(0.7007 -0.7134 0.7134 0.7007 42.3378 220.4916)" width="3.6" height="19.5"/>
	</g>
	<path d="M348,125.6c-0.3,0.5-0.5,0.7-0.5,0.7l-2.8-2.3c0,0,4.8-6.2,1.3-21.5c-3.5-15.3-24.2-19.7-24.4-19.8l0.7-3.5
		c0.9,0.2,23.2,5,27.2,22.5C352.8,116.1,349.3,123.4,348,125.6z"/>
	<g>
		<line class="st2" x1="366.1" y1="108.7" x2="347.7" y2="102.1"/>
		<rect x="355.1" y="95.6" transform="matrix(0.3349 -0.9422 0.9422 0.3349 138.0692 406.398)" width="3.6" height="19.5"/>
	</g>
	<g>
		<path d="M273.8,168.3l-4.7-0.6c0.3-2.2,0.7-4.1,1.2-5.8l4.6,1.4C274.4,164.7,274,166.4,273.8,168.3z"/>
		<path d="M271.8,283.5l-1.7-4.4c2.6-1,5.6-2.7,9-5.1l2.7,3.9C278.1,280.5,274.7,282.4,271.8,283.5z M258.9,282.4
			c-1.5-1.5-2.6-3.7-3.2-6.6c-0.3-1.7-0.6-3.4-0.8-5.1l4.7-0.6c0.2,1.6,0.5,3.2,0.8,4.7c0.4,1.9,1,3.3,1.9,4.1L258.9,282.4z
			 M290.6,270.8l-3.1-3.6c3.7-3.3,6.5-6.1,7.4-7.1l4,2.5c-0.2,0.2-0.3,0.5-0.5,0.6C297.3,264.5,294.5,267.4,290.6,270.8z
			 M251.4,267.7c-2.2,0-4.3-0.3-6.4-0.9l1.3-4.6c3.1,0.9,6.5,0.9,9.6,0.2l1.1,4.6C255.2,267.5,253.3,267.7,251.4,267.7z
			 M234.7,262.1c-3.8-1.8-7-3.1-9.8-4l1.4-4.5c3.1,1,6.5,2.3,10.5,4.3L234.7,262.1z M267.7,260.9l-3.6-3.2c1.4-1.6,2.1-3.2,2.1-4.8
			c0-0.9-0.2-1.7-0.7-2.5l4.2-2.3c0.8,1.5,1.3,3.2,1.3,4.9C271,255.7,269.8,258.4,267.7,260.9z M259.3,259.7l-4.7-0.4
			c0.4-4.7,1.3-8.7,2.8-11.5l4.2,2.2C260.4,252.2,259.6,255.6,259.3,259.7z M294.6,251.1c-0.6-3-1.6-6.5-3-10.3l4.5-1.6
			c1.4,4,2.4,7.6,3.1,10.8L294.6,251.1z M287.6,230.8c-1.4-3.3-3-6.6-4.6-9.8l4.2-2.2c1.7,3.2,3.3,6.6,4.8,10.1L287.6,230.8z
			 M277.7,211.6c-1.8-3.2-3.4-6.7-4.7-10.3l4.5-1.6c1.2,3.4,2.7,6.6,4.4,9.6L277.7,211.6z M269.9,190.3c-0.7-3.7-1.2-7.5-1.3-11.2
			l4.8-0.2c0.2,3.5,0.6,7.1,1.2,10.5L269.9,190.3z"/>
		<path d="M210.1,257.8l-1.6-4.5c2-0.7,4-1.1,6-1.3l0.4,4.7C213.3,256.8,211.7,257.2,210.1,257.8z"/>
	</g>
	<g>
		<path class="st0" d="M315.8,132.9c-3,2.9-6.3,5.3-9.7,7.1c-3.4-4.8-7.6-9.1-12.5-12.8c-5.5-4.1-11.5-7-17.9-8.9
			c0.4-3.7,1.2-7.5,2.6-11.3c8.2,1,16.1,4.3,23.1,9.5C307.4,121,312.3,126.6,315.8,132.9z"/>
	</g>
	<g>
		<path class="st2" d="M306.1,140c-3.4-4.8-7.6-9.1-12.5-12.8c-5.5-4.1-11.5-7-17.9-8.9c0.4-3.7,1.2-7.5,2.6-11.3
			c8.2,1,16.1,4.3,23.1,9.5c6,4.4,10.9,10.1,14.4,16.3C312.7,135.8,309.4,138.2,306.1,140z"/>
	</g>
	<path d="M395.1,4.8V395H4.9V4.8H395.1 M399.9,0h-4.8H4.9H0.1v4.8V395v4.8h4.8h390.2h4.8V395V4.8V0L399.9,0z"/>
</g>
</svg>
