<?xml version="1.0" encoding="utf-8"?>
<!-- Generator: Adobe Illustrator 22.0.1, SVG Export Plug-In . SVG Version: 6.00 Build 0)  -->
<svg version="1.1" id="Calque_1" xmlns="http://www.w3.org/2000/svg" xmlns:xlink="http://www.w3.org/1999/xlink" x="0px" y="0px"
	 viewBox="0 0 15 15" style="enable-background:new 0 0 15 15;" xml:space="preserve">
<style type="text/css">
	.st0{fill:#FFFFFF;}
	.st1{fill:none;}
</style>
<g>
	<polygon points="6.7,13.8 7.1,15 7.6,13.9 	"/>
	<g>
		<ellipse transform="matrix(0.879 -0.4769 0.4769 0.879 6.273816e-02 2.8381)" cx="5.6" cy="1.3" rx="0.2" ry="1.1"/>
	</g>
	<g>
		<ellipse transform="matrix(0.5228 -0.8525 0.8525 0.5228 3.1377 8.3774)" cx="9.1" cy="1.4" rx="1.1" ry="0.2"/>
	</g>
	<g>
		<g>
			<path class="st0" d="M7.4,5.5c0.4,0,0.7,0.1,1,0.3c0,0,0,0,0,0C9.3,6.3,10,7.5,10.2,9c0,0.1,0,0.2,0,0.4C9.5,8.9,8.6,8.6,7.7,8.5
				C6.5,8.4,5.4,8.6,4.5,9.1c0-0.1,0-0.2,0-0.3c0.2-1.4,0.9-2.5,1.8-3C6.6,5.6,7,5.5,7.4,5.5L7.4,5.5C7.4,5.5,7.4,5.5,7.4,5.5z"/>
		</g>
		<path d="M5,8.4c0.3-1.1,0.8-1.9,1.5-2.3c0.3-0.1,0.5-0.2,0.8-0.2l0,0l0,0l0,0c0,0,0,0,0,0c0.3,0,0.6,0.1,0.8,0.3l0,0
			C9,6.6,9.5,7.5,9.7,8.6c-0.6-0.3-1.3-0.5-2-0.5C6.8,8,5.8,8.1,5,8.4L5,8.4z M4.5,9.1c0.9-0.5,2-0.7,3.2-0.6
			c0.9,0.1,1.8,0.4,2.5,0.9c0-0.1,0-0.2,0-0.4C10,7.5,9.3,6.3,8.4,5.8c0,0,0,0,0,0c-0.3-0.2-0.7-0.3-1-0.3c0,0,0,0,0,0l0,0
			c-0.4,0-0.7,0.1-1,0.3c-0.9,0.5-1.6,1.6-1.8,3C4.5,8.9,4.5,9,4.5,9.1L4.5,9.1z"/>
	</g>
	<g>
		<g>
			<circle class="st0" cx="7.4" cy="3.6" r="2.6"/>
		</g>
		<path d="M5.2,3.6c0-1.2,1.1-2.2,2.3-2.2c1.2,0,2.2,1.1,2.2,2.3c0,1.2-1.1,2.2-2.3,2.2S5.2,4.8,5.2,3.6L5.2,3.6z M4.8,3.6
			c0,1.4,1.1,2.6,2.5,2.7S10,5.1,10,3.7S8.9,1.1,7.5,1C6,1,4.8,2.1,4.8,3.6L4.8,3.6z"/>
	</g>
	<g>
		<ellipse transform="matrix(0.9161 -0.401 0.401 0.9161 -2.2985 2.2387)" class="st0" cx="4.2" cy="6.6" rx="3.4" ry="2.2"/>
		<path d="M1.4,7.4c0-0.9,0.9-1.8,2.1-2.4C5,4.3,6.6,4.5,6.9,5.4C7,5.5,7,5.7,7,5.9c0,0.9-0.9,1.8-2.1,2.4C3.4,8.9,1.8,8.7,1.5,7.8
			C1.4,7.7,1.4,7.5,1.4,7.4L1.4,7.4z M1,7.3C1,7.6,1,7.8,1.1,8c0.5,1.1,2.3,1.4,4,0.6C6.5,8,7.4,6.9,7.4,5.9c0-0.2,0-0.4-0.1-0.6
			c-0.5-1.1-2.3-1.4-4-0.6C1.9,5.3,1,6.4,1,7.3L1,7.3z"/>
	</g>
	<g>
		<ellipse transform="matrix(0.449 -0.8936 0.8936 0.449 -0.2955 13.073)" class="st0" cx="10.5" cy="6.8" rx="2.2" ry="3.4"/>
		<path d="M7.7,5.9L7.7,5.9c0-0.2,0-0.3,0.1-0.4c0.4-0.9,2-1,3.5-0.2c1.2,0.6,2,1.6,2,2.5c0,0.2,0,0.3-0.1,0.4c-0.4,0.9-2,1-3.5,0.2
			C8.5,7.7,7.6,6.7,7.7,5.9L7.7,5.9z M7.3,5.9c0,1,0.8,2.1,2.2,2.8c1.7,0.8,3.5,0.7,4-0.4c0.1-0.2,0.1-0.4,0.2-0.6
			c0-1-0.8-2.1-2.2-2.8C9.7,4,8,4.2,7.4,5.3C7.3,5.4,7.3,5.7,7.3,5.9L7.3,5.9z"/>
	</g>
	<g>
		<path d="M7.3,12.4c0.7,0.1,1.4,0.3,2,0.6c-0.5,0.8-1.3,1.3-2.1,1.2c-0.9,0-1.7-0.6-2.2-1.6C5.7,12.4,6.5,12.3,7.3,12.4z"/>
	</g>
	<path d="M7.5,10.4c-1.1-0.1-2.1,0.1-3,0.5c0.1,0.6,0.3,1.2,0.5,1.7c0.7-0.2,1.5-0.3,2.3-0.2c0.7,0.1,1.4,0.3,2,0.6
		c0.3-0.5,0.6-1,0.7-1.6C9.3,10.8,8.4,10.5,7.5,10.4z M7.3,12.1c-0.7-0.1-1.5,0-2.2,0.2c-0.2-0.4-0.3-0.8-0.4-1.2
		c0.8-0.4,1.7-0.5,2.7-0.4C8.3,10.8,9,11,9.7,11.4c-0.1,0.4-0.3,0.8-0.5,1.2C8.6,12.3,8,12.2,7.3,12.1z"/>
	<g>
		<path class="st0" d="M9.7,11.4c-0.1,0.4-0.3,0.8-0.5,1.2c-0.6-0.3-1.2-0.4-1.9-0.5c-0.7-0.1-1.5,0-2.2,0.2
			c-0.2-0.4-0.3-0.8-0.4-1.2c0.8-0.4,1.7-0.5,2.7-0.4C8.3,10.8,9,11,9.7,11.4z"/>
	</g>
	<g>
		<path d="M7.7,8.5c0.9,0.1,1.8,0.4,2.5,0.9c0,0.2,0,0.4,0,0.6c0,0.5-0.1,1-0.2,1.4c-0.7-0.5-1.6-0.8-2.5-0.9
			c-1.1-0.1-2.1,0.1-3,0.5c-0.1-0.4-0.1-0.8-0.1-1.2c0-0.2,0-0.4,0.1-0.7C5.4,8.6,6.5,8.4,7.7,8.5z"/>
	</g>
	<circle cx="5.1" cy="0.4" r="0.4"/>
	<circle cx="9.6" cy="0.4" r="0.4"/>
	<path d="M7.4,6.1L7.3,6.4c0,0-2.2-0.8-3.4,0.3c-1.2,1.2-1.2,2-1.2,2l-0.4,0c0,0-0.1-1,1.3-2.3C5,5.1,7.3,6,7.4,6.1z"/>
	<g>
		<line class="st1" x1="1.7" y1="6.1" x2="3.7" y2="6.6"/>
		<rect x="2.5" y="5.3" transform="matrix(0.2416 -0.9704 0.9704 0.2416 -4.0944 7.4474)" width="0.4" height="2.1"/>
	</g>
	<path d="M12.3,9C12.3,9,12.3,9.1,12.3,9l-0.4,0c0,0,0.1-0.8-1.1-2.1C9.7,5.7,7.5,6.4,7.5,6.4L7.4,6.1c0.1,0,2.4-0.8,3.8,0.6
		C12.2,7.8,12.3,8.7,12.3,9z"/>
	<g>
		<line class="st1" x1="13.1" y1="6.4" x2="11" y2="6.8"/>
		<rect x="11" y="6.4" transform="matrix(0.9818 -0.1898 0.1898 0.9818 -1.0319 2.4029)" width="2.1" height="0.4"/>
	</g>
</g>
</svg>
