<?xml version="1.0" encoding="utf-8"?>
<!-- Generator: Adobe Illustrator 22.0.1, SVG Export Plug-In . SVG Version: 6.00 Build 0)  -->
<svg version="1.1" id="Calque_1" xmlns="http://www.w3.org/2000/svg" xmlns:xlink="http://www.w3.org/1999/xlink" x="0px" y="0px"
	 viewBox="0 0 15 15" style="enable-background:new 0 0 15 15;" xml:space="preserve">
<style type="text/css">
	.st0{fill:#FFC000;}
	.st1{fill:#FFFFFF;}
	.st2{fill:none;}
</style>
<g>
	<polygon points="6.9,13.2 7.2,14.3 7.7,13.3 	"/>
	<g>
		<ellipse transform="matrix(0.872 -0.4895 0.4895 0.872 -0.2177 3.0429)" cx="5.7" cy="1.9" rx="0.2" ry="1"/>
	</g>
	<g>
		<ellipse transform="matrix(0.5104 -0.8599 0.8599 0.5104 2.6085 8.5314)" cx="8.8" cy="2" rx="1" ry="0.2"/>
	</g>
	<g>
		<path class="st0" d="M7.4,5.7c0.3,0,0.6,0.1,0.9,0.3c0,0,0,0,0,0c0.8,0.5,1.4,1.6,1.6,2.9c0,0.1,0,0.2,0,0.3
			C9.3,8.7,8.5,8.5,7.7,8.4C6.6,8.3,5.6,8.5,4.8,9c0-0.1,0-0.2,0-0.3C5,7.4,5.6,6.4,6.4,5.9C6.7,5.8,7,5.7,7.4,5.7L7.4,5.7
			C7.4,5.7,7.4,5.7,7.4,5.7z"/>
		<path d="M5.2,8.4c0.2-1,0.7-1.8,1.4-2.1C6.8,6.1,7.1,6,7.3,6l0,0l0,0l0,0c0,0,0,0,0,0c0.3,0,0.5,0.1,0.7,0.2l0,0
			c0.6,0.4,1.1,1.2,1.3,2.2C8.9,8.2,8.3,8.1,7.7,8C6.9,8,6,8.1,5.2,8.4L5.2,8.4z M4.8,9c0.8-0.5,1.8-0.7,2.9-0.6
			c0.8,0.1,1.6,0.3,2.3,0.7c0-0.1,0-0.2,0-0.3C9.7,7.5,9.1,6.4,8.3,5.9c0,0,0,0,0,0C8,5.8,7.7,5.7,7.4,5.7c0,0,0,0,0,0l0,0
			C7,5.7,6.7,5.8,6.4,5.9C5.6,6.4,5,7.4,4.8,8.7C4.8,8.8,4.8,8.9,4.8,9L4.8,9z"/>
	</g>
	<g>
		<circle class="st0" cx="7.3" cy="4" r="2.3"/>
		<path d="M5.4,4c0-1.1,0.9-2,2-2s2,0.9,2,2c0,1.1-0.9,2-2,2S5.3,5.1,5.4,4L5.4,4z M5,4c0,1.3,1,2.4,2.3,2.4c1.3,0,2.4-1,2.4-2.3
			c0-1.3-1-2.4-2.3-2.4S5,2.7,5,4L5,4z"/>
	</g>
	<g>
		<ellipse transform="matrix(0.9102 -0.4142 0.4142 0.9102 -2.3881 2.468)" class="st1" cx="4.5" cy="6.7" rx="3.1" ry="1.9"/>
		<path d="M2,7.5c0-0.8,0.8-1.7,1.9-2.2C5.2,4.7,6.6,4.8,7,5.6C7,5.7,7,5.9,7,6c0,0.8-0.8,1.7-1.9,2.2C3.8,8.8,2.4,8.6,2,7.9
			C2,7.7,2,7.6,2,7.5L2,7.5z M1.6,7.4c0,0.2,0,0.4,0.1,0.6c0.4,1,2,1.2,3.6,0.5C6.6,7.9,7.4,6.9,7.4,6c0-0.2,0-0.4-0.1-0.6
			c-0.4-1-2-1.2-3.6-0.5C2.4,5.6,1.6,6.6,1.6,7.4L1.6,7.4z"/>
	</g>
	<g>
		<ellipse transform="matrix(0.436 -0.8999 0.8999 0.436 -0.4155 12.954)" class="st1" cx="10.1" cy="6.8" rx="1.9" ry="3.1"/>
		<path d="M7.6,6L7.6,6c0-0.1,0-0.3,0.1-0.4c0.4-0.8,1.8-0.9,3.1-0.2c1.1,0.5,1.8,1.4,1.8,2.2c0,0.1,0,0.3-0.1,0.4
			c-0.4,0.8-1.8,0.9-3.1,0.2C8.4,7.7,7.6,6.8,7.6,6L7.6,6z M7.3,6c0,0.9,0.8,1.9,2,2.5c1.5,0.7,3.1,0.5,3.6-0.4C13,8,13,7.8,13,7.6
			c0-0.9-0.8-1.9-2-2.5C9.5,4.3,7.8,4.5,7.4,5.5C7.3,5.7,7.3,5.8,7.3,6L7.3,6z"/>
	</g>
	<g>
		<path d="M7.4,11.9c0.7,0.1,1.3,0.2,1.8,0.5c-0.5,0.7-1.1,1.2-1.9,1.1c-0.8,0-1.5-0.6-2-1.4C5.9,11.9,6.6,11.8,7.4,11.9z"/>
	</g>
	<path d="M7.5,10.1c-1-0.1-1.9,0.1-2.7,0.5c0.1,0.6,0.3,1.1,0.5,1.5c0.6-0.2,1.3-0.3,2-0.2c0.7,0.1,1.3,0.2,1.8,0.5
		c0.3-0.4,0.5-0.9,0.6-1.5C9.1,10.5,8.4,10.2,7.5,10.1z M7.4,11.7c-0.7-0.1-1.3,0-1.9,0.2c-0.2-0.3-0.3-0.7-0.4-1.1
		c0.7-0.3,1.6-0.5,2.4-0.4c0.7,0.1,1.4,0.3,2,0.6c-0.1,0.4-0.3,0.8-0.4,1.1C8.5,11.8,8,11.7,7.4,11.7z"/>
	<path class="st0" d="M9.5,11c-0.1,0.4-0.3,0.8-0.4,1.1c-0.5-0.2-1.1-0.4-1.7-0.4c-0.7-0.1-1.3,0-1.9,0.2c-0.2-0.3-0.3-0.7-0.4-1.1
		c0.7-0.3,1.6-0.5,2.4-0.4C8.2,10.4,8.9,10.6,9.5,11z"/>
	<g>
		<path d="M7.7,8.4c0.8,0.1,1.6,0.3,2.3,0.7c0,0.2,0,0.3,0,0.5c0,0.4-0.1,0.9-0.2,1.3c-0.6-0.4-1.4-0.7-2.3-0.8
			c-1-0.1-1.9,0.1-2.7,0.5c-0.1-0.3-0.1-0.7-0.1-1.1c0-0.2,0-0.4,0-0.6C5.6,8.5,6.6,8.3,7.7,8.4z"/>
	</g>
	<circle cx="5.3" cy="1.2" r="0.4"/>
	<circle cx="9.3" cy="1.1" r="0.4"/>
	<path d="M7.4,6.2L7.3,6.5c0,0-2-0.7-3,0.3c-1.1,1.1-1,1.8-1,1.8l-0.3,0c0,0-0.1-0.9,1.1-2.1C5.2,5.4,7.3,6.2,7.4,6.2z"/>
	<g>
		<line class="st2" x1="2.2" y1="6.3" x2="4.1" y2="6.7"/>
		<rect x="3" y="5.6" transform="matrix(0.2275 -0.9738 0.9738 0.2275 -3.9078 8.1124)" width="0.4" height="1.9"/>
	</g>
	<path d="M11.8,8.8C11.8,8.8,11.8,8.8,11.8,8.8l-0.4,0c0,0,0.1-0.8-1-1.9c-1.1-1.1-3-0.4-3-0.4L7.3,6.2c0.1,0,2.2-0.8,3.4,0.5
		C11.7,7.7,11.8,8.5,11.8,8.8z"/>
	<g>
		<line class="st2" x1="12.5" y1="6.4" x2="10.6" y2="6.8"/>
		<rect x="10.6" y="6.4" transform="matrix(0.979 -0.2039 0.2039 0.979 -1.1074 2.4937)" width="1.9" height="0.4"/>
	</g>
</g>
</svg>
