<?xml version="1.0" encoding="utf-8"?>
<!-- Generator: Adobe Illustrator 22.0.1, SVG Export Plug-In . SVG Version: 6.00 Build 0)  -->
<svg version="1.1" id="Calque_1" xmlns="http://www.w3.org/2000/svg" xmlns:xlink="http://www.w3.org/1999/xlink" x="0px" y="0px"
	 viewBox="0 0 100 100" style="enable-background:new 0 0 100 100;" xml:space="preserve">
<style type="text/css">
	.st0{fill:#FFC000;}
	.st1{fill:#FFFFFF;}
	.st2{fill:none;}
</style>
<g>
	<polygon points="47.5,86 49.8,93 52.8,86.5 	"/>
	<g>
		<ellipse transform="matrix(0.872 -0.4895 0.4895 0.872 -1.5323 21.346)" cx="40" cy="13.6" rx="1.4" ry="6.4"/>
	</g>
	<g>
		<ellipse transform="matrix(0.5104 -0.8599 0.8599 0.5104 17.429 58.2967)" cx="59.9" cy="13.8" rx="6.4" ry="1.4"/>
	</g>
	<g>
		<path class="st0" d="M50.8,37.6c2.1,0,4.1,0.6,5.9,1.7c0,0,0,0,0,0c5.2,3.1,9.1,10,10.2,18.5c0.1,0.7,0.2,1.4,0.2,2.1
			c-4.1-2.6-9.1-4.3-14.5-4.8c-6.9-0.6-13.4,0.8-18.6,3.8c0.1-0.6,0.1-1.2,0.2-1.7c1.3-8.1,5.2-14.7,10.3-17.8
			c1.8-1.1,3.8-1.7,5.8-1.7l0.2,0C50.6,37.6,50.7,37.6,50.8,37.6z"/>
		<path d="M37,54.9c1.5-6.2,4.7-11.3,8.7-13.7c1.5-0.9,3.1-1.4,4.7-1.4l0.1,0l0.1,0l0.1,0c0,0,0.1,0,0.1,0c1.6,0,3.3,0.5,4.8,1.4
			l0.2,0.1c4.1,2.5,7.2,7.9,8.5,14.4c-3.6-1.6-7.5-2.6-11.5-3C47.4,52.3,41.9,53.1,37,54.9L37,54.9z M34,58.8
			c5.3-2.9,11.8-4.4,18.6-3.8c5.4,0.5,10.4,2.2,14.5,4.8c-0.1-0.7-0.1-1.4-0.2-2.1c-1.1-8.5-5-15.4-10.2-18.5c0,0,0,0,0,0
			c-1.8-1.1-3.8-1.7-5.9-1.7c-0.1,0-0.2,0-0.3,0l-0.2,0c-2,0.1-4,0.7-5.8,1.7c-5.1,3-9,9.6-10.3,17.8C34.2,57.6,34.1,58.2,34,58.8
			L34,58.8z"/>
	</g>
	<g>
		<circle class="st0" cx="50.6" cy="27" r="15.1"/>
		<path d="M37.7,26.8c0.1-7.1,5.9-12.8,13-12.7s12.8,5.9,12.7,13s-5.9,12.8-13,12.7S37.7,33.9,37.7,26.8L37.7,26.8z M35.5,26.8
			c-0.1,8.3,6.6,15.2,14.9,15.3c8.3,0.1,15.2-6.6,15.3-14.9c0.1-8.3-6.6-15.2-14.9-15.3C42.4,11.8,35.6,18.5,35.5,26.8L35.5,26.8z"
			/>
	</g>
	<g>
		
			<ellipse transform="matrix(0.9102 -0.4142 0.4142 0.9102 -15.5366 17.3543)" class="st1" cx="32.2" cy="44.5" rx="19.6" ry="12.5"/>
		<path d="M15.9,49.1C16,44.1,21,38.4,28,35.2c8.6-3.9,17.7-2.9,20,2.1c0.4,0.8,0.5,1.7,0.5,2.6c-0.1,4.9-5,10.6-12.1,13.8
			c-8.6,3.9-17.7,2.9-20-2.1C16.1,50.9,15.9,50,15.9,49.1L15.9,49.1z M13.7,49c0,1.2,0.2,2.5,0.7,3.6c2.8,6.3,13.2,7.7,23,3.2
			c8.1-3.7,13.4-10.2,13.4-15.9c0-1.2-0.2-2.5-0.7-3.6c-2.8-6.3-13.2-7.7-23-3.2C19,36.8,13.7,43.4,13.7,49L13.7,49z"/>
	</g>
	<g>
		<ellipse transform="matrix(0.436 -0.8999 0.8999 0.436 -1.8245 86.9667)" class="st1" cx="68.5" cy="44.9" rx="12.5" ry="19.6"/>
		<path d="M52.3,40L52.3,40c0-0.9,0.2-1.8,0.6-2.6c2.4-5,11.6-5.7,20.1-1.6c7,3.4,11.8,9.2,11.8,14.1c0,0.9-0.2,1.8-0.6,2.6
			c-2.4,5-11.6,5.7-20.1,1.6C57,50.7,52.2,44.9,52.3,40L52.3,40z M50,39.9C49.9,45.6,55,52.3,63,56.1c9.8,4.7,20.1,3.5,23.1-2.7
			c0.5-1.1,0.8-2.3,0.8-3.6c0.1-5.7-5.1-12.3-13.1-16.2c-9.8-4.7-20.1-3.5-23.1,2.7C50.3,37.5,50,38.7,50,39.9L50,39.9z"/>
	</g>
	<g>
		<path d="M50.6,77.6c4.2,0.4,8.1,1.5,11.6,3.2c-3.1,4.6-7.3,7.4-12,7.4c-5.1-0.1-9.7-3.6-12.7-9.1C41.5,77.7,46,77.2,50.6,77.6z"/>
	</g>
	<path d="M51.6,66.3c-6.3-0.6-12.3,0.6-17.3,3.1c0.6,3.6,1.7,6.8,3.2,9.6c4-1.3,8.5-1.8,13.1-1.4c4.2,0.4,8.1,1.5,11.6,3.2
		c1.8-2.7,3.2-5.9,4.1-9.6C62.1,68.6,57.1,66.8,51.6,66.3z M50.8,76.1c-4.3-0.4-8.5,0-12.5,1.1c-1-2.1-1.8-4.4-2.3-6.9
		c4.7-2.1,10-2.9,15.5-2.5c4.7,0.4,9.2,1.8,13,4.1c-0.7,2.5-1.7,4.9-2.9,7C58.2,77.4,54.6,76.4,50.8,76.1z"/>
	<path class="st0" d="M64.5,71.9c-0.7,2.5-1.7,4.9-2.9,7c-3.4-1.5-7.1-2.4-10.9-2.8c-4.3-0.4-8.5,0-12.5,1.1c-1-2.1-1.8-4.4-2.3-6.9
		c4.7-2.1,10-2.9,15.5-2.5C56.2,68.2,60.7,69.6,64.5,71.9z"/>
	<g>
		<path d="M52.7,55c5.4,0.5,10.4,2.2,14.5,4.8c0.1,1.1,0.1,2.1,0.1,3.2c0,2.9-0.4,5.6-1,8.1c-4.2-2.6-9.2-4.4-14.6-4.9
			c-6.3-0.6-12.3,0.6-17.3,3.1c-0.4-2.2-0.6-4.4-0.5-6.8c0-1.3,0.1-2.6,0.2-3.8C39.3,55.9,45.8,54.4,52.7,55z"/>
	</g>
	<circle cx="37.2" cy="8.7" r="2.3"/>
	<circle cx="62.9" cy="8.3" r="2.3"/>
	<path d="M50.8,41L50,43.1c-0.1,0-12.6-4.7-19.6,2.1c-7,6.9-6.6,11.8-6.6,11.8l-2.2,0.3c0-0.2-0.7-5.9,7.3-13.7
		C36.9,35.8,50.2,40.8,50.8,41z"/>
	<g>
		<line class="st2" x1="17.7" y1="41.7" x2="29.6" y2="44.5"/>
		<rect x="22.5" y="37" transform="matrix(0.2275 -0.9738 0.9738 0.2275 -23.6838 56.2999)" width="2.3" height="12.2"/>
	</g>
	<path d="M79.4,57.5c0,0.3,0,0.5,0,0.6l-2.2-0.3c0,0,0.6-4.9-6.3-11.9c-6.9-7-19.4-2.7-19.5-2.6L50.5,41c0.6-0.2,14-4.9,21.9,3.2
		C78.9,50.8,79.4,55.8,79.4,57.5z"/>
	<g>
		<line class="st2" x1="83.6" y1="42.5" x2="71.6" y2="45"/>
		<rect x="71.5" y="42.6" transform="matrix(0.979 -0.2039 0.2039 0.979 -7.2864 16.7439)" width="12.2" height="2.3"/>
	</g>
</g>
</svg>
